<mxfile host="65bd71144e" scale="3" border="0">
    <diagram name="第 1 页" id="ZLBNSQG6a64uLy78s9hU">
        <mxGraphModel dx="338" dy="556" grid="1" gridSize="10" guides="1" tooltips="1" connect="1" arrows="1" fold="1" page="1" pageScale="1" pageWidth="827" pageHeight="1169" math="0" shadow="0">
            <root>
                <mxCell id="0"/>
                <mxCell id="1" parent="0"/>
                <mxCell id="Vrv0WtWTOPf99DK3Its--7" style="edgeStyle=orthogonalEdgeStyle;rounded=0;orthogonalLoop=1;jettySize=auto;html=1;exitX=0.5;exitY=1;exitDx=0;exitDy=0;entryX=0.5;entryY=0;entryDx=0;entryDy=0;" parent="1" source="Vrv0WtWTOPf99DK3Its--1" target="Vrv0WtWTOPf99DK3Its--2" edge="1">
                    <mxGeometry relative="1" as="geometry"/>
                </mxCell>
                <mxCell id="Vrv0WtWTOPf99DK3Its--1" value="FRET数据检验" style="rounded=1;whiteSpace=wrap;html=1;" parent="1" vertex="1">
                    <mxGeometry x="350" y="160" width="130" height="40" as="geometry"/>
                </mxCell>
                <mxCell id="Vrv0WtWTOPf99DK3Its--8" style="edgeStyle=orthogonalEdgeStyle;rounded=0;orthogonalLoop=1;jettySize=auto;html=1;exitX=0.5;exitY=1;exitDx=0;exitDy=0;entryX=0.5;entryY=0;entryDx=0;entryDy=0;" parent="1" source="Vrv0WtWTOPf99DK3Its--2" target="Vrv0WtWTOPf99DK3Its--3" edge="1">
                    <mxGeometry relative="1" as="geometry"/>
                </mxCell>
                <mxCell id="Vrv0WtWTOPf99DK3Its--2" value="FRET信号选取&lt;div&gt;（ROI选取）&lt;/div&gt;" style="rounded=1;whiteSpace=wrap;html=1;" parent="1" vertex="1">
                    <mxGeometry x="350" y="220" width="130" height="40" as="geometry"/>
                </mxCell>
                <mxCell id="Vrv0WtWTOPf99DK3Its--9" style="edgeStyle=orthogonalEdgeStyle;rounded=0;orthogonalLoop=1;jettySize=auto;html=1;exitX=0.5;exitY=1;exitDx=0;exitDy=0;entryX=0.5;entryY=0;entryDx=0;entryDy=0;" parent="1" source="Vrv0WtWTOPf99DK3Its--3" target="Vrv0WtWTOPf99DK3Its--4" edge="1">
                    <mxGeometry relative="1" as="geometry"/>
                </mxCell>
                <mxCell id="Vrv0WtWTOPf99DK3Its--3" value="FRET定量计算&lt;div&gt;（E-FRET、3&lt;sup&gt;3&lt;/sup&gt;&lt;span style=&quot;background-color: transparent; color: light-dark(rgb(0, 0, 0), rgb(255, 255, 255));&quot;&gt;-FRET&lt;/span&gt;&lt;span style=&quot;background-color: transparent; color: light-dark(rgb(0, 0, 0), rgb(255, 255, 255));&quot;&gt;）&lt;/span&gt;&lt;/div&gt;" style="rounded=1;whiteSpace=wrap;html=1;" parent="1" vertex="1">
                    <mxGeometry x="350" y="280" width="130" height="40" as="geometry"/>
                </mxCell>
                <mxCell id="Vrv0WtWTOPf99DK3Its--10" style="edgeStyle=orthogonalEdgeStyle;rounded=0;orthogonalLoop=1;jettySize=auto;html=1;exitX=0.5;exitY=1;exitDx=0;exitDy=0;entryX=0.5;entryY=0;entryDx=0;entryDy=0;" parent="1" source="Vrv0WtWTOPf99DK3Its--4" target="Vrv0WtWTOPf99DK3Its--5" edge="1">
                    <mxGeometry relative="1" as="geometry"/>
                </mxCell>
                <mxCell id="Vrv0WtWTOPf99DK3Its--4" value="数据预处理&lt;div&gt;质量控制&lt;/div&gt;" style="rounded=1;whiteSpace=wrap;html=1;" parent="1" vertex="1">
                    <mxGeometry x="350" y="340" width="130" height="40" as="geometry"/>
                </mxCell>
                <mxCell id="Vrv0WtWTOPf99DK3Its--5" value="FRET双杂交分析&lt;div&gt;拟合计算&lt;/div&gt;" style="rounded=1;whiteSpace=wrap;html=1;" parent="1" vertex="1">
                    <mxGeometry x="350" y="400" width="130" height="40" as="geometry"/>
                </mxCell>
                <mxCell id="Vrv0WtWTOPf99DK3Its--11" style="edgeStyle=orthogonalEdgeStyle;rounded=0;orthogonalLoop=1;jettySize=auto;html=1;exitX=0.5;exitY=1;exitDx=0;exitDy=0;entryX=0.5;entryY=0;entryDx=0;entryDy=0;" parent="1" edge="1">
                    <mxGeometry relative="1" as="geometry">
                        <mxPoint x="414.9" y="140" as="sourcePoint"/>
                        <mxPoint x="414.9" y="160" as="targetPoint"/>
                    </mxGeometry>
                </mxCell>
                <mxCell id="Vrv0WtWTOPf99DK3Its--12" style="edgeStyle=orthogonalEdgeStyle;rounded=0;orthogonalLoop=1;jettySize=auto;html=1;exitX=0.5;exitY=1;exitDx=0;exitDy=0;entryX=0.5;entryY=0;entryDx=0;entryDy=0;" parent="1" edge="1">
                    <mxGeometry relative="1" as="geometry">
                        <mxPoint x="414.94" y="440" as="sourcePoint"/>
                        <mxPoint x="414.94" y="460" as="targetPoint"/>
                    </mxGeometry>
                </mxCell>
                <mxCell id="Vrv0WtWTOPf99DK3Its--13" value="FRET三通道图像" style="text;html=1;align=center;verticalAlign=middle;whiteSpace=wrap;rounded=0;" parent="1" vertex="1">
                    <mxGeometry x="366.25" y="110" width="97.5" height="30" as="geometry"/>
                </mxCell>
                <mxCell id="Vrv0WtWTOPf99DK3Its--14" value="&lt;i&gt;&lt;font face=&quot;Helvetica&quot;&gt;K&lt;sub style=&quot;&quot;&gt;d,EFF、&lt;/sub&gt;N&lt;sub style=&quot;&quot;&gt;D&lt;/sub&gt;/N&lt;sub style=&quot;&quot;&gt;A、&lt;/sub&gt;&lt;span style=&quot;background-color: transparent; color: light-dark(rgb(0, 0, 0), rgb(255, 255, 255));&quot;&gt;E&lt;/span&gt;&lt;sub style=&quot;background-color: transparent; color: light-dark(rgb(0, 0, 0), rgb(255, 255, 255));&quot;&gt;A,max、&lt;/sub&gt;&lt;span style=&quot;background-color: transparent; color: light-dark(rgb(0, 0, 0), rgb(255, 255, 255));&quot;&gt;E&lt;/span&gt;&lt;sub style=&quot;background-color: transparent; color: light-dark(rgb(0, 0, 0), rgb(255, 255, 255));&quot;&gt;D,max&amp;nbsp;&lt;/sub&gt;&lt;/font&gt;&lt;/i&gt;" style="text;html=1;align=center;verticalAlign=middle;whiteSpace=wrap;rounded=0;" parent="1" vertex="1">
                    <mxGeometry x="317.5" y="460" width="195" height="30" as="geometry"/>
                </mxCell>
            </root>
        </mxGraphModel>
    </diagram>
</mxfile>